<?xml version="1.0" encoding="utf-8"?>
<!-- Generator: Adobe Illustrator 16.0.0, SVG Export Plug-In . SVG Version: 6.00 Build 0)  -->
<!DOCTYPE svg PUBLIC "-//W3C//DTD SVG 1.1//EN" "http://www.w3.org/Graphics/SVG/1.1/DTD/svg11.dtd">
<svg version="1.1" id="Layer_1" xmlns="http://www.w3.org/2000/svg" xmlns:xlink="http://www.w3.org/1999/xlink" x="0px" y="0px"
	 width="256px" height="256px" viewBox="0 0 256 256" enable-background="new 0 0 256 256" xml:space="preserve">
<title>Square Avatar 02</title>
<desc>Created with Sketch.</desc>
<g>
	
		<linearGradient id="SVGID_1_" gradientUnits="userSpaceOnUse" x1="-319.981" y1="792" x2="-128.0195" y2="792" gradientTransform="matrix(1 0 0 -1 352 920)">
		<stop  offset="0" style="stop-color:#0066FF"/>
		<stop  offset="1" style="stop-color:#2B32E8"/>
	</linearGradient>
	<path fill="url(#SVGID_1_)" d="M206.656,44.953c3.242,0,5.871,2.628,5.871,5.87v154.354c0,3.243-2.629,5.871-5.871,5.871H49.34
		c-3.241,0-5.868-2.628-5.868-5.871V50.823c0-3.242,2.627-5.87,5.868-5.87H206.656 M206.656,33.5H49.34
		c-9.552,0-17.321,7.771-17.321,17.323v154.354c0,9.554,7.771,17.323,17.321,17.323h157.316c9.553,0,17.324-7.771,17.324-17.323
		V50.823C223.98,41.271,216.209,33.5,206.656,33.5L206.656,33.5z"/>
</g>
<g>
	
		<linearGradient id="SVGID_2_" gradientUnits="userSpaceOnUse" x1="-292.2212" y1="734.1133" x2="-249.7793" y2="734.1133" gradientTransform="matrix(1 0 0 -1 352 920)">
		<stop  offset="0" style="stop-color:#0066FF"/>
		<stop  offset="1" style="stop-color:#2B32E8"/>
	</linearGradient>
	<path fill="url(#SVGID_2_)" d="M102.221,193.779c0,3.647-2.959,6.606-6.604,6.606h-29.23c-3.648,0-6.607-2.959-6.607-6.606v-15.784
		c0-3.647,2.959-6.606,6.607-6.606h29.229c3.646,0,6.604,2.959,6.604,6.606L102.221,193.779L102.221,193.779z"/>
</g>
<g>
	
		<linearGradient id="SVGID_3_" gradientUnits="userSpaceOnUse" x1="-245.2212" y1="734.1133" x2="-202.7793" y2="734.1133" gradientTransform="matrix(1 0 0 -1 352 920)">
		<stop  offset="0" style="stop-color:#0066FF"/>
		<stop  offset="1" style="stop-color:#2B32E8"/>
	</linearGradient>
	<path fill="url(#SVGID_3_)" d="M149.221,193.779c0,3.647-2.959,6.606-6.604,6.606h-29.23c-3.648,0-6.607-2.959-6.607-6.606v-15.784
		c0-3.647,2.959-6.606,6.607-6.606h29.229c3.646,0,6.604,2.959,6.604,6.606L149.221,193.779L149.221,193.779z"/>
</g>
<g>
	
		<linearGradient id="SVGID_4_" gradientUnits="userSpaceOnUse" x1="-198.2207" y1="734.1133" x2="-155.7793" y2="734.1133" gradientTransform="matrix(1 0 0 -1 352 920)">
		<stop  offset="0" style="stop-color:#0066FF"/>
		<stop  offset="1" style="stop-color:#2B32E8"/>
	</linearGradient>
	<path fill="url(#SVGID_4_)" d="M196.221,193.779c0,3.647-2.959,6.606-6.604,6.606h-29.23c-3.647,0-6.606-2.959-6.606-6.606v-15.784
		c0-3.647,2.959-6.606,6.606-6.606h29.229c3.646,0,6.604,2.959,6.604,6.606L196.221,193.779L196.221,193.779z"/>
</g>
<g>
	
		<linearGradient id="SVGID_5_" gradientUnits="userSpaceOnUse" x1="-292.2212" y1="847.9492" x2="-155.7793" y2="847.9492" gradientTransform="matrix(1 0 0 -1 352 920)">
		<stop  offset="0" style="stop-color:#0066FF"/>
		<stop  offset="1" style="stop-color:#2B32E8"/>
	</linearGradient>
	<path fill="url(#SVGID_5_)" d="M196.221,79.943c0,3.649-2.959,6.607-6.604,6.607H66.386c-3.648,0-6.607-2.958-6.607-6.607V64.159
		c0-3.647,2.959-6.607,6.607-6.607h123.229c3.646,0,6.604,2.958,6.604,6.607L196.221,79.943L196.221,79.943z"/>
</g>
</svg>
